<svg width="49" height="49" viewBox="0 0 49 49" fill="none" xmlns="http://www.w3.org/2000/svg">
<path d="M23.9457 34.8909C20.2208 34.8909 16.7186 33.4405 14.0845 30.8064C11.4504 28.1723 10 24.6706 10 20.9457C10 17.2208 11.4504 13.7186 14.0845 11.0845C16.7186 8.45044 20.2203 7 23.9457 7C27.6711 7 31.1728 8.45044 33.8069 11.0845C36.441 13.7186 37.8914 17.2203 37.8914 20.9457C37.8914 24.6711 36.441 28.1728 33.8069 30.8069C31.1728 33.441 27.6711 34.8914 23.9457 34.8914V34.8909ZM23.9457 10.0784C17.9536 10.0784 13.0784 14.9536 13.0784 20.9457C13.0784 26.9378 17.9536 31.813 23.9457 31.813C29.9378 31.813 34.813 26.9378 34.813 20.9457C34.813 14.9536 29.9378 10.0784 23.9457 10.0784Z" fill="currentColor"/>
<path d="M43.2045 42C42.7448 42 42.2851 41.8245 41.9347 41.4741L32.152 31.6914C31.4506 30.9901 31.4506 29.8531 32.152 29.1517C32.8534 28.4504 33.9903 28.4504 34.6917 29.1517L44.4744 38.9344C45.1757 39.6358 45.1757 40.7727 44.4744 41.4741C44.1239 41.8245 43.6642 42 43.2045 42Z" fill="currentColor"/>
</svg>
