<svg width="23" height="16" viewBox="0 0 23 16" fill="none" xmlns="http://www.w3.org/2000/svg">
<path fill-rule="evenodd" clip-rule="evenodd" d="M0.667812 1.13308L0.801374 0.982828C1.29088 0.47095 2.02013 0.214844 2.98846 0.214844H19.5836C20.4961 0.214844 21.1973 0.437559 21.6872 0.882656L21.7039 0.899351C21.8041 0.988504 21.9046 1.09402 22.0044 1.21656C22.0044 1.22791 22.0101 1.23893 22.0211 1.24995L22.0378 1.26665C22.4054 1.7231 22.5887 2.36854 22.5887 3.2033V12.6528C22.5777 14.6563 21.576 15.658 19.5836 15.658H2.98846C0.996041 15.647 0 14.6453 0 12.6528V3.2033C0 2.30176 0.222715 1.61157 0.667812 1.13308ZM20.1345 1.85098C19.9676 1.80657 19.7839 1.78954 19.5839 1.8009H2.98846C2.86591 1.78988 2.74905 1.79522 2.63786 1.81759L11.2359 10.5325L20.1345 1.85098ZM1.58605 3.01965C1.57503 3.07542 1.57503 3.13652 1.58605 3.2033V12.6528C1.58605 13.5991 2.05352 14.0719 2.98846 14.0719H19.5836C20.5295 14.0719 21.0027 13.5991 21.0027 12.6528V3.22L11.7869 12.2188C11.6199 12.3747 11.4309 12.4525 11.2196 12.4525C10.9969 12.4415 10.8075 12.3633 10.6519 12.2188L1.58605 3.01965Z" fill="white"/>
<path fill-rule="evenodd" clip-rule="evenodd" d="M0.667847 1.13268C0.690218 1.09929 0.717932 1.0659 0.751322 1.03251C0.762675 1.01014 0.779036 0.993441 0.801407 0.982422L0.667847 1.13268Z" fill="white"/>
</svg>
