<svg width="22" height="22" viewBox="0 0 22 22" fill="none" xmlns="http://www.w3.org/2000/svg">
<path d="M18.3102 12.7195C17.7852 12.1734 17.1501 11.8852 16.4727 11.8852C15.8024 11.8852 15.1626 12.1688 14.6259 12.7078L13.2923 14.0414C13.2595 14.025 13.2267 14.0086 13.1962 13.9922L13.1282 13.9594C12.9852 13.8867 12.8212 13.8047 12.6852 13.7203C11.3165 12.8508 10.0673 11.7117 8.86259 10.2352C8.34696 9.58594 7.98603 9.03516 7.72118 8.48672C8.05634 8.17031 8.36806 7.85391 8.66103 7.55391C8.72665 7.48828 8.79228 7.42031 8.86025 7.35234C8.92587 7.28438 8.99384 7.21641 9.06181 7.14844C9.61962 6.59062 9.91493 5.94375 9.91259 5.27813C9.91259 4.61484 9.61728 3.97031 9.06181 3.41719L7.76571 2.12109C7.69071 2.04609 7.61571 1.97109 7.54306 1.89609C7.4704 1.82109 7.3954 1.74609 7.32275 1.67344L7.21962 1.56797C6.96415 1.30781 6.69931 1.03828 6.43212 0.792188C5.91181 0.274219 5.28134 0 4.61337 0C3.94775 0 3.31259 0.274219 2.77118 0.792188C2.76884 0.794531 2.7665 0.794531 2.7665 0.796875L1.14228 2.41875C0.478995 3.08203 0.101651 3.89063 0.01962 4.82109V4.82344C-0.0670988 5.925 0.13212 7.0875 0.647745 8.48203C1.42821 10.5914 2.60009 12.5461 4.33212 14.632C6.44618 17.1516 8.98446 19.1391 11.8743 20.5383H11.8767C12.9899 21.0703 14.4852 21.6938 16.1727 21.8039C16.1751 21.8039 16.1774 21.8039 16.1798 21.8039H16.1915C16.2876 21.8086 16.3884 21.8133 16.4938 21.8133C17.6774 21.8133 18.6759 21.3844 19.4587 20.5383L19.4704 20.5266C19.4798 20.5172 19.4868 20.5102 19.4938 20.5008C19.7282 20.2195 19.9977 19.9594 20.3001 19.6688C20.5087 19.4695 20.722 19.2656 20.9282 19.0453C21.4602 18.4898 21.7415 17.843 21.7392 17.175C21.7368 16.5047 21.4509 15.8648 20.9118 15.3258L18.3102 12.7195ZM18.0524 19.2516C17.6352 19.6969 17.1571 19.8961 16.5056 19.8961C16.4446 19.8961 16.3767 19.8914 16.3063 19.8867C14.9563 19.8 13.679 19.2656 12.7181 18.8086C10.0649 17.5312 7.73993 15.7125 5.80634 13.4016C4.22431 11.4961 3.1579 9.71953 2.45243 7.81641C2.03056 6.68437 1.87118 5.80781 1.93681 4.98047C1.979 4.49766 2.15946 4.11328 2.504 3.77344L4.1165 2.16094C4.28525 1.99922 4.45868 1.9125 4.6204 1.9125C4.77275 1.9125 4.93446 1.99688 5.10556 2.16328C5.1079 2.16563 5.11025 2.16797 5.11259 2.17031C5.3915 2.43281 5.66337 2.70937 5.95165 3L5.96103 3.00937C6.09931 3.15234 6.25868 3.31641 6.4204 3.47344L7.71415 4.76719C8.0915 5.14453 8.0915 5.40937 7.71415 5.78672C7.57821 5.92266 7.43993 6.06094 7.304 6.20156L7.2079 6.3C6.84462 6.66797 6.50243 7.01484 6.12978 7.34531C6.12509 7.35 6.11806 7.35469 6.11337 7.36172L6.08993 7.38516C5.69384 7.78125 5.58603 8.25469 5.77118 8.78906C5.77587 8.80313 5.78056 8.81484 5.78525 8.82656C5.78759 8.83359 5.78993 8.84062 5.79462 8.84766C6.1415 9.68437 6.629 10.4789 7.379 11.4281C7.379 11.4305 7.38134 11.4305 7.38134 11.4328C8.71259 13.0711 10.1165 14.3508 11.6751 15.3398C11.879 15.4688 12.0899 15.5766 12.2868 15.675C12.4321 15.7477 12.5962 15.832 12.7321 15.9141C12.7415 15.9211 12.7509 15.9258 12.7602 15.9305L12.7673 15.9352C12.7813 15.9422 12.7954 15.9516 12.8118 15.9586C13.0157 16.0617 13.2173 16.1109 13.4259 16.1109C13.7821 16.1109 14.1102 15.9633 14.3751 15.6844L15.997 14.0625C16.1142 13.9453 16.297 13.8047 16.4892 13.8047C16.6673 13.8047 16.8407 13.943 16.9532 14.0602C16.9556 14.0625 16.9556 14.0625 16.9579 14.0648L19.5759 16.6828C19.8337 16.9406 20.0095 17.2453 19.5548 17.7234L19.5524 17.7258C19.4095 17.8805 19.2571 18.0281 19.0954 18.1852C19.0602 18.218 19.0251 18.2531 18.9899 18.2883C18.6618 18.5953 18.3477 18.9 18.0524 19.2516Z" fill="white"/>
</svg>
