<svg width="100" height="100" viewBox="0 0 100 100" fill="none" xmlns="http://www.w3.org/2000/svg">
<g filter="url(#filter0_d_0_1)">
<circle cx="49.8578" cy="36.8578" r="31.8578" fill="white"/>
</g>
<path d="M50.0033 23.0619C54.5464 23.0619 55.0844 23.0819 56.8711 23.1616C58.5316 23.2346 59.4282 23.5136 60.026 23.746C60.8164 24.0516 61.3876 24.4235 61.9787 25.0147C62.5765 25.6124 62.9418 26.177 63.2473 26.9674C63.4798 27.5651 63.7587 28.4685 63.8318 30.1223C63.9115 31.9156 63.9314 32.4536 63.9314 36.99C63.9314 41.5331 63.9115 42.0711 63.8318 43.8578C63.7587 45.5183 63.4798 46.4149 63.2473 47.0127C62.9418 47.8031 62.5698 48.3743 61.9787 48.9654C61.3809 49.5632 60.8164 49.9285 60.026 50.234C59.4282 50.4665 58.5249 50.7455 56.8711 50.8185C55.0778 50.8982 54.5398 50.9181 50.0033 50.9181C45.4602 50.9181 44.9223 50.8982 43.1356 50.8185C41.4751 50.7455 40.5784 50.4665 39.9807 50.234C39.1903 49.9285 38.6191 49.5566 38.0279 48.9654C37.4302 48.3677 37.0649 47.8031 36.7593 47.0127C36.5269 46.4149 36.2479 45.5116 36.1748 43.8578C36.0951 42.0645 36.0752 41.5265 36.0752 36.99C36.0752 32.447 36.0951 31.909 36.1748 30.1223C36.2479 28.4618 36.5269 27.5651 36.7593 26.9674C37.0649 26.177 37.4368 25.6058 38.0279 25.0147C38.6257 24.4169 39.1903 24.0516 39.9807 23.746C40.5784 23.5136 41.4817 23.2346 43.1356 23.1616C44.9223 23.0819 45.4602 23.0619 50.0033 23.0619ZM50.0033 20C45.3872 20 44.8093 20.0199 42.9961 20.0996C41.1895 20.1793 39.9475 20.4716 38.8715 20.89C37.749 21.3284 36.7992 21.9062 35.856 22.856C34.9062 23.7992 34.3284 24.749 33.89 25.8648C33.4716 26.9475 33.1793 28.1828 33.0996 29.9895C33.0199 31.8093 33 32.3872 33 37.0033C33 41.6195 33.0199 42.1973 33.0996 44.0105C33.1793 45.8172 33.4716 47.0592 33.89 48.1352C34.3284 49.2577 34.9062 50.2075 35.856 51.1506C36.7992 52.0938 37.749 52.6783 38.8648 53.11C39.9475 53.5284 41.1828 53.8207 42.9895 53.9004C44.8027 53.9801 45.3805 54 49.9967 54C54.6128 54 55.1907 53.9801 57.0039 53.9004C58.8105 53.8207 60.0526 53.5284 61.1285 53.11C62.2444 52.6783 63.1942 52.0938 64.1373 51.1506C65.0805 50.2075 65.665 49.2577 66.0967 48.1418C66.5151 47.0592 66.8074 45.8238 66.8871 44.0172C66.9668 42.2039 66.9867 41.6261 66.9867 37.01C66.9867 32.3938 66.9668 31.816 66.8871 30.0027C66.8074 28.1961 66.5151 26.9541 66.0967 25.8781C65.6783 24.749 65.1004 23.7992 64.1506 22.856C63.2075 21.9129 62.2577 21.3284 61.1418 20.8967C60.0592 20.4782 58.8238 20.186 57.0172 20.1063C55.1973 20.0199 54.6195 20 50.0033 20Z" fill="#0419DC"/>
<path d="M50.0033 28.269C45.1813 28.269 41.2692 32.1811 41.2692 37.0032C41.2692 41.8252 45.1813 45.7373 50.0033 45.7373C54.8253 45.7373 58.7374 41.8252 58.7374 37.0032C58.7374 32.1811 54.8253 28.269 50.0033 28.269ZM50.0033 42.6687C46.8749 42.6687 44.3377 40.1315 44.3377 37.0032C44.3377 33.8748 46.8749 31.3376 50.0033 31.3376C53.1316 31.3376 55.6689 33.8748 55.6689 37.0032C55.6689 40.1315 53.1316 42.6687 50.0033 42.6687Z" fill="#0419DC"/>
<path d="M61.122 27.9238C61.122 29.053 60.2054 29.9629 59.0829 29.9629C57.9538 29.9629 57.0438 29.0463 57.0438 27.9238C57.0438 26.7947 57.9604 25.8848 59.0829 25.8848C60.2054 25.8848 61.122 26.8014 61.122 27.9238Z" fill="#0419DC"/>
<defs>
<filter id="filter0_d_0_1" x="0" y="0" width="99.7157" height="99.7158" filterUnits="userSpaceOnUse" color-interpolation-filters="sRGB">
<feFlood flood-opacity="0" result="BackgroundImageFix"/>
<feColorMatrix in="SourceAlpha" type="matrix" values="0 0 0 0 0 0 0 0 0 0 0 0 0 0 0 0 0 0 127 0" result="hardAlpha"/>
<feOffset dy="13"/>
<feGaussianBlur stdDeviation="9"/>
<feColorMatrix type="matrix" values="0 0 0 0 0.0658854 0 0 0 0 0.0730469 0 0 0 0 0.1375 0 0 0 0.08 0"/>
<feBlend mode="normal" in2="BackgroundImageFix" result="effect1_dropShadow_0_1"/>
<feBlend mode="normal" in="SourceGraphic" in2="effect1_dropShadow_0_1" result="shape"/>
</filter>
</defs>
</svg>
